<svg xmlns="http://www.w3.org/2000/svg" width="912" height="410" viewBox="0 0 912 410" role="img" aria-label="Benchmark comparison, lower is better. Marshal large · 616 KiB: encoding/json/v2 392 µs, + odjson 111 µs, sonic 117 µs, go-json 237 µs. Marshal small · 340 B: encoding/json/v2 1025 ns, + odjson 317 ns, sonic 308 ns, go-json 374 ns. Unmarshal large · 616 KiB: encoding/json/v2 1072 µs, + odjson 506 µs, sonic 492 µs, go-json 655 µs. Unmarshal small · 340 B: encoding/json/v2 1842 ns, + odjson 573 ns, sonic 977 ns, go-json 770 ns."><style>
text{font-family:-apple-system,BlinkMacSystemFont,"Segoe UI",Helvetica,Arial,sans-serif}
.mono{font-family:ui-monospace,SFMono-Regular,Menlo,Consolas,"Liberation Mono",monospace}
.t1{fill:#ffffff}.t2{fill:#c3c2b7}
</style><rect width="912" height="410" fill="#1a1a19"/><text class="t1" x="20" y="26" font-size="16" font-weight="600">encoding/json/v2, with and without odjson</text><text class="t2" x="20" y="46" font-size="12">Time per operation — lower is better. Each panel has its own scale.</text><text class="t1" x="20" y="75" font-size="13" font-weight="600">Marshal</text><text class="t2" x="88" y="75" font-size="11">large · 616 KiB · µs · odjson vs encoding/json/v2</text><rect x="20" y="83" width="424" height="1" fill="#33332f"/><text class="mono t2" x="20" y="109" font-size="11">encoding/json/v2</text><path d="M162 96 h206 a4 4 0 0 1 4 4 v10 a4 4 0 0 1 -4 4 h-206 z" fill="#8c8c84"/><text class="mono t2" x="382" y="109" font-size="11">392</text><text class="mono t1" x="30" y="137" font-size="11">+ odjson</text><path d="M162 124 h55 a4 4 0 0 1 4 4 v10 a4 4 0 0 1 -4 4 h-55 z" fill="#3987e5"/><text class="mono t1" x="231" y="137" font-size="11">111</text><path d="M221.5 116.5 v6 m0 -3 H372.5 m0 -3 v6" stroke="#3987e5" stroke-width="1" opacity="0.5" fill="none"/><text x="262" y="139" font-size="16" font-weight="700" fill="#3987e5">3.53× faster</text><text class="mono t2" x="20" y="165" font-size="11">sonic</text><path d="M162 152 h59 a4 4 0 0 1 4 4 v10 a4 4 0 0 1 -4 4 h-59 z" fill="#8c8c84"/><text class="mono t2" x="235" y="165" font-size="11">117</text><text class="mono t2" x="20" y="193" font-size="11">go-json</text><path d="M162 180 h123 a4 4 0 0 1 4 4 v10 a4 4 0 0 1 -4 4 h-123 z" fill="#8c8c84"/><text class="mono t2" x="299" y="193" font-size="11">237</text><text class="t1" x="468" y="75" font-size="13" font-weight="600">Marshal</text><text class="t2" x="536" y="75" font-size="11">small · 340 B · ns · odjson vs encoding/json/v2</text><rect x="468" y="83" width="424" height="1" fill="#33332f"/><text class="mono t2" x="468" y="109" font-size="11">encoding/json/v2</text><path d="M610 96 h206 a4 4 0 0 1 4 4 v10 a4 4 0 0 1 -4 4 h-206 z" fill="#8c8c84"/><text class="mono t2" x="830" y="109" font-size="11">1025</text><text class="mono t1" x="478" y="137" font-size="11">+ odjson</text><path d="M610 124 h61 a4 4 0 0 1 4 4 v10 a4 4 0 0 1 -4 4 h-61 z" fill="#3987e5"/><text class="mono t1" x="685" y="137" font-size="11">317</text><path d="M675.5 116.5 v6 m0 -3 H820.5 m0 -3 v6" stroke="#3987e5" stroke-width="1" opacity="0.5" fill="none"/><text x="716" y="139" font-size="16" font-weight="700" fill="#3987e5">3.23× faster</text><text class="mono t2" x="468" y="165" font-size="11">sonic</text><path d="M610 152 h59 a4 4 0 0 1 4 4 v10 a4 4 0 0 1 -4 4 h-59 z" fill="#8c8c84"/><text class="mono t2" x="683" y="165" font-size="11">308</text><text class="mono t2" x="468" y="193" font-size="11">go-json</text><path d="M610 180 h73 a4 4 0 0 1 4 4 v10 a4 4 0 0 1 -4 4 h-73 z" fill="#8c8c84"/><text class="mono t2" x="697" y="193" font-size="11">374</text><text class="t1" x="20" y="247" font-size="13" font-weight="600">Unmarshal</text><text class="t2" x="106" y="247" font-size="11">large · 616 KiB · µs · odjson vs encoding/json/v2</text><rect x="20" y="255" width="424" height="1" fill="#33332f"/><text class="mono t2" x="20" y="281" font-size="11">encoding/json/v2</text><path d="M162 268 h206 a4 4 0 0 1 4 4 v10 a4 4 0 0 1 -4 4 h-206 z" fill="#8c8c84"/><text class="mono t2" x="382" y="281" font-size="11">1072</text><text class="mono t1" x="30" y="309" font-size="11">+ odjson</text><path d="M162 296 h95 a4 4 0 0 1 4 4 v10 a4 4 0 0 1 -4 4 h-95 z" fill="#3987e5"/><text class="mono t1" x="271" y="309" font-size="11">506</text><path d="M261.5 288.5 v6 m0 -3 H372.5 m0 -3 v6" stroke="#3987e5" stroke-width="1" opacity="0.5" fill="none"/><text x="302" y="311" font-size="16" font-weight="700" fill="#3987e5">2.12× faster</text><text class="mono t2" x="20" y="337" font-size="11">sonic</text><path d="M162 324 h92 a4 4 0 0 1 4 4 v10 a4 4 0 0 1 -4 4 h-92 z" fill="#8c8c84"/><text class="mono t2" x="268" y="337" font-size="11">492</text><text class="mono t2" x="20" y="365" font-size="11">go-json</text><path d="M162 352 h124 a4 4 0 0 1 4 4 v10 a4 4 0 0 1 -4 4 h-124 z" fill="#8c8c84"/><text class="mono t2" x="300" y="365" font-size="11">655</text><text class="t1" x="468" y="247" font-size="13" font-weight="600">Unmarshal</text><text class="t2" x="554" y="247" font-size="11">small · 340 B · ns · odjson vs encoding/json/v2</text><rect x="468" y="255" width="424" height="1" fill="#33332f"/><text class="mono t2" x="468" y="281" font-size="11">encoding/json/v2</text><path d="M610 268 h206 a4 4 0 0 1 4 4 v10 a4 4 0 0 1 -4 4 h-206 z" fill="#8c8c84"/><text class="mono t2" x="830" y="281" font-size="11">1842</text><text class="mono t1" x="478" y="309" font-size="11">+ odjson</text><path d="M610 296 h61 a4 4 0 0 1 4 4 v10 a4 4 0 0 1 -4 4 h-61 z" fill="#3987e5"/><text class="mono t1" x="685" y="309" font-size="11">573</text><path d="M675.5 288.5 v6 m0 -3 H820.5 m0 -3 v6" stroke="#3987e5" stroke-width="1" opacity="0.5" fill="none"/><text x="716" y="311" font-size="16" font-weight="700" fill="#3987e5">3.21× faster</text><text class="mono t2" x="468" y="337" font-size="11">sonic</text><path d="M610 324 h107 a4 4 0 0 1 4 4 v10 a4 4 0 0 1 -4 4 h-107 z" fill="#8c8c84"/><text class="mono t2" x="731" y="337" font-size="11">977</text><text class="mono t2" x="468" y="365" font-size="11">go-json</text><path d="M610 352 h84 a4 4 0 0 1 4 4 v10 a4 4 0 0 1 -4 4 h-84 z" fill="#8c8c84"/><text class="mono t2" x="708" y="365" font-size="11">770</text><text class="t2" x="20" y="399" font-size="11">Medians of 10 runs · AMD Ryzen 9 7950X · Linux · Go 1.27.1 · bench/plain and bench/gen</text></svg>
