<svg xmlns="http://www.w3.org/2000/svg" width="912" height="410" viewBox="0 0 912 410" role="img" aria-label="Benchmark comparison, lower is better. Marshal large · 616 KiB: encoding/json/v2 400 µs, + odjson 113 µs, sonic 116 µs, go-json 245 µs. Marshal small · 340 B: encoding/json/v2 1036 ns, + odjson 305 ns, sonic 311 ns, go-json 380 ns. Unmarshal large · 616 KiB: encoding/json/v2 1111 µs, + odjson 516 µs, sonic 526 µs, go-json 687 µs. Unmarshal small · 340 B: encoding/json/v2 1910 ns, + odjson 601 ns, sonic 1023 ns, go-json 799 ns."><style>
text{font-family:-apple-system,BlinkMacSystemFont,"Segoe UI",Helvetica,Arial,sans-serif}
.mono{font-family:ui-monospace,SFMono-Regular,Menlo,Consolas,"Liberation Mono",monospace}
.t1{fill:#0b0b0b}.t2{fill:#52514e}
</style><rect width="912" height="410" fill="#fcfcfb"/><text class="t1" x="20" y="26" font-size="16" font-weight="600">encoding/json/v2, with and without odjson</text><text class="t2" x="20" y="46" font-size="12">Time per operation — lower is better. Each panel has its own scale.</text><text class="t1" x="20" y="75" font-size="13" font-weight="600">Marshal</text><text class="t2" x="88" y="75" font-size="11">large · 616 KiB · µs · odjson vs encoding/json/v2</text><rect x="20" y="83" width="424" height="1" fill="#e4e3df"/><text class="mono t2" x="20" y="109" font-size="11">encoding/json/v2</text><path d="M162 96 h206 a4 4 0 0 1 4 4 v10 a4 4 0 0 1 -4 4 h-206 z" fill="#82827a"/><text class="mono t2" x="382" y="109" font-size="11">400</text><text class="mono t1" x="30" y="137" font-size="11">+ odjson</text><path d="M162 124 h55 a4 4 0 0 1 4 4 v10 a4 4 0 0 1 -4 4 h-55 z" fill="#2a78d6"/><text class="mono t1" x="231" y="137" font-size="11">113</text><path d="M221 116 v6 m0 -3 H372 m0 -3 v6" stroke="#2a78d6" stroke-width="2" fill="none"/><text x="262" y="139" font-size="16" font-weight="700" fill="#2a78d6">3.54× faster</text><text class="mono t2" x="20" y="165" font-size="11">sonic</text><path d="M162 152 h57 a4 4 0 0 1 4 4 v10 a4 4 0 0 1 -4 4 h-57 z" fill="#82827a"/><text class="mono t2" x="233" y="165" font-size="11">116</text><text class="mono t2" x="20" y="193" font-size="11">go-json</text><path d="M162 180 h125 a4 4 0 0 1 4 4 v10 a4 4 0 0 1 -4 4 h-125 z" fill="#82827a"/><text class="mono t2" x="301" y="193" font-size="11">245</text><text class="t1" x="468" y="75" font-size="13" font-weight="600">Marshal</text><text class="t2" x="536" y="75" font-size="11">small · 340 B · ns · odjson vs encoding/json/v2</text><rect x="468" y="83" width="424" height="1" fill="#e4e3df"/><text class="mono t2" x="468" y="109" font-size="11">encoding/json/v2</text><path d="M610 96 h206 a4 4 0 0 1 4 4 v10 a4 4 0 0 1 -4 4 h-206 z" fill="#82827a"/><text class="mono t2" x="830" y="109" font-size="11">1036</text><text class="mono t1" x="478" y="137" font-size="11">+ odjson</text><path d="M610 124 h58 a4 4 0 0 1 4 4 v10 a4 4 0 0 1 -4 4 h-58 z" fill="#2a78d6"/><text class="mono t1" x="682" y="137" font-size="11">305</text><path d="M672 116 v6 m0 -3 H820 m0 -3 v6" stroke="#2a78d6" stroke-width="2" fill="none"/><text x="713" y="139" font-size="16" font-weight="700" fill="#2a78d6">3.40× faster</text><text class="mono t2" x="468" y="165" font-size="11">sonic</text><path d="M610 152 h59 a4 4 0 0 1 4 4 v10 a4 4 0 0 1 -4 4 h-59 z" fill="#82827a"/><text class="mono t2" x="683" y="165" font-size="11">311</text><text class="mono t2" x="468" y="193" font-size="11">go-json</text><path d="M610 180 h73 a4 4 0 0 1 4 4 v10 a4 4 0 0 1 -4 4 h-73 z" fill="#82827a"/><text class="mono t2" x="697" y="193" font-size="11">380</text><text class="t1" x="20" y="247" font-size="13" font-weight="600">Unmarshal</text><text class="t2" x="106" y="247" font-size="11">large · 616 KiB · µs · odjson vs encoding/json/v2</text><rect x="20" y="255" width="424" height="1" fill="#e4e3df"/><text class="mono t2" x="20" y="281" font-size="11">encoding/json/v2</text><path d="M162 268 h206 a4 4 0 0 1 4 4 v10 a4 4 0 0 1 -4 4 h-206 z" fill="#82827a"/><text class="mono t2" x="382" y="281" font-size="11">1111</text><text class="mono t1" x="30" y="309" font-size="11">+ odjson</text><path d="M162 296 h94 a4 4 0 0 1 4 4 v10 a4 4 0 0 1 -4 4 h-94 z" fill="#2a78d6"/><text class="mono t1" x="270" y="309" font-size="11">516</text><path d="M260 288 v6 m0 -3 H372 m0 -3 v6" stroke="#2a78d6" stroke-width="2" fill="none"/><text x="301" y="311" font-size="16" font-weight="700" fill="#2a78d6">2.15× faster</text><text class="mono t2" x="20" y="337" font-size="11">sonic</text><path d="M162 324 h95 a4 4 0 0 1 4 4 v10 a4 4 0 0 1 -4 4 h-95 z" fill="#82827a"/><text class="mono t2" x="271" y="337" font-size="11">526</text><text class="mono t2" x="20" y="365" font-size="11">go-json</text><path d="M162 352 h126 a4 4 0 0 1 4 4 v10 a4 4 0 0 1 -4 4 h-126 z" fill="#82827a"/><text class="mono t2" x="302" y="365" font-size="11">687</text><text class="t1" x="468" y="247" font-size="13" font-weight="600">Unmarshal</text><text class="t2" x="554" y="247" font-size="11">small · 340 B · ns · odjson vs encoding/json/v2</text><rect x="468" y="255" width="424" height="1" fill="#e4e3df"/><text class="mono t2" x="468" y="281" font-size="11">encoding/json/v2</text><path d="M610 268 h206 a4 4 0 0 1 4 4 v10 a4 4 0 0 1 -4 4 h-206 z" fill="#82827a"/><text class="mono t2" x="830" y="281" font-size="11">1910</text><text class="mono t1" x="478" y="309" font-size="11">+ odjson</text><path d="M610 296 h62 a4 4 0 0 1 4 4 v10 a4 4 0 0 1 -4 4 h-62 z" fill="#2a78d6"/><text class="mono t1" x="686" y="309" font-size="11">601</text><path d="M676 288 v6 m0 -3 H820 m0 -3 v6" stroke="#2a78d6" stroke-width="2" fill="none"/><text x="717" y="311" font-size="16" font-weight="700" fill="#2a78d6">3.18× faster</text><text class="mono t2" x="468" y="337" font-size="11">sonic</text><path d="M610 324 h108 a4 4 0 0 1 4 4 v10 a4 4 0 0 1 -4 4 h-108 z" fill="#82827a"/><text class="mono t2" x="732" y="337" font-size="11">1023</text><text class="mono t2" x="468" y="365" font-size="11">go-json</text><path d="M610 352 h84 a4 4 0 0 1 4 4 v10 a4 4 0 0 1 -4 4 h-84 z" fill="#82827a"/><text class="mono t2" x="708" y="365" font-size="11">799</text><text class="t2" x="20" y="399" font-size="11">Medians of 10 runs · AMD Ryzen 9 7950X · Linux · Go 1.27.1 · bench/plain and bench/gen</text></svg>
