<svg xmlns="http://www.w3.org/2000/svg" width="912" height="1002" viewBox="0 0 912 1002" role="img" aria-label="Benchmark comparison, lower is better. Marshal large · 616 KiB: encoding/json/v2 386 µs, + odjson 98 µs, sonic 115 µs, go-json 191 µs, json-iterator 425 µs, segmentio/encoding 223 µs, jettison 321 µs, easyjson (codegen) 430 µs, gojay (hand-written) 397 µs. Marshal medium · 13 KiB: encoding/json/v2 11855 ns, + odjson 2596 ns, sonic 3434 ns, go-json 3491 ns, json-iterator 9156 ns, segmentio/encoding 4947 ns, jettison 8518 ns, easyjson (codegen) 9698 ns, gojay (hand-written) 17408 ns. Marshal small · 340 B: encoding/json/v2 1014 ns, + odjson 276 ns, sonic 294 ns, go-json 378 ns, json-iterator 582 ns, segmentio/encoding 395 ns, jettison 477 ns, easyjson (codegen) 687 ns, gojay (hand-written) 647 ns. Unmarshal large · 616 KiB: encoding/json/v2 1102 µs, + odjson 378 µs, sonic 524 µs, go-json 405 µs, json-iterator 1096 µs, segmentio/encoding 879 µs, simdjson-go 611 µs, easyjson (codegen) 1113 µs, gojay (hand-written) 2608 µs. Unmarshal medium · 13 KiB: encoding/json/v2 22048 ns, + odjson 8550 ns, sonic 14946 ns, go-json 8903 ns, json-iterator 22574 ns, segmentio/encoding 17640 ns, simdjson-go 30004 ns, easyjson (codegen) 18594 ns, gojay (hand-written) 25832 ns. Unmarshal small · 340 B: encoding/json/v2 1891 ns, + odjson 530 ns, sonic 1021 ns, go-json 550 ns, json-iterator 1110 ns, segmentio/encoding 1156 ns, simdjson-go 1618 ns, easyjson (codegen) 1169 ns, gojay (hand-written) 1070 ns."><style>
text{font-family:-apple-system,BlinkMacSystemFont,"Segoe UI",Helvetica,Arial,sans-serif}
.mono{font-family:ui-monospace,SFMono-Regular,Menlo,Consolas,"Liberation Mono",monospace}
.t1{fill:#ffffff}.t2{fill:#c3c2b7}
</style><rect width="912" height="1002" fill="#1a1a19"/><text class="t1" x="20" y="26" font-size="16" font-weight="600">encoding/json/v2, with and without odjson</text><text class="t2" x="20" y="46" font-size="12">Time per operation — lower is better. Each panel has its own scale. The other libraries are baselines, as they ship.</text><text class="t1" x="20" y="75" font-size="13" font-weight="600">Marshal</text><text class="t2" x="88" y="75" font-size="11">large · 616 KiB · µs · odjson vs encoding/json/v2</text><rect x="20" y="83" width="424" height="1" fill="#33332f"/><text class="mono t2" x="20" y="109" font-size="11">encoding/json/v2</text><path d="M180 96 h168 a4 4 0 0 1 4 4 v10 a4 4 0 0 1 -4 4 h-168 z" fill="#8c8c84"/><text class="mono t2" x="362" y="109" font-size="11">386</text><text class="mono t1" x="30" y="137" font-size="11">+ odjson</text><path d="M180 124 h40 a4 4 0 0 1 4 4 v10 a4 4 0 0 1 -4 4 h-40 z" fill="#3987e5"/><text class="mono t1" x="234" y="137" font-size="11">98</text><path d="M224 116 v6 m0 -3 H352 m0 -3 v6" stroke="#3987e5" stroke-width="2" fill="none"/><text x="258" y="139" font-size="16" font-weight="700" fill="#3987e5">3.96× faster</text><text class="mono t2" x="20" y="165" font-size="11">sonic</text><path d="M180 152 h47 a4 4 0 0 1 4 4 v10 a4 4 0 0 1 -4 4 h-47 z" fill="#8c8c84"/><text class="mono t2" x="241" y="165" font-size="11">115</text><text class="mono t2" x="20" y="193" font-size="11">go-json</text><path d="M180 180 h81 a4 4 0 0 1 4 4 v10 a4 4 0 0 1 -4 4 h-81 z" fill="#8c8c84"/><text class="mono t2" x="275" y="193" font-size="11">191</text><text class="mono t2" x="20" y="221" font-size="11">json-iterator</text><path d="M180 208 h186 a4 4 0 0 1 4 4 v10 a4 4 0 0 1 -4 4 h-186 z" fill="#8c8c84"/><text class="mono t2" x="380" y="221" font-size="11">425</text><text class="mono t2" x="20" y="249" font-size="11">segmentio/encoding</text><path d="M180 236 h95 a4 4 0 0 1 4 4 v10 a4 4 0 0 1 -4 4 h-95 z" fill="#8c8c84"/><text class="mono t2" x="289" y="249" font-size="11">223</text><text class="mono t2" x="20" y="277" font-size="11">jettison</text><path d="M180 264 h139 a4 4 0 0 1 4 4 v10 a4 4 0 0 1 -4 4 h-139 z" fill="#8c8c84"/><text class="mono t2" x="333" y="277" font-size="11">321</text><text class="mono t2" x="20" y="305" font-size="11">easyjson (codegen)</text><path d="M180 292 h188 a4 4 0 0 1 4 4 v10 a4 4 0 0 1 -4 4 h-188 z" fill="#8c8c84"/><text class="mono t2" x="382" y="305" font-size="11">430</text><text class="mono t2" x="20" y="333" font-size="11">gojay (hand-written)</text><path d="M180 320 h173 a4 4 0 0 1 4 4 v10 a4 4 0 0 1 -4 4 h-173 z" fill="#8c8c84"/><text class="mono t2" x="367" y="333" font-size="11">397</text><text class="t1" x="20" y="387" font-size="13" font-weight="600">Marshal</text><text class="t2" x="88" y="387" font-size="11">medium · 13 KiB · ns · odjson vs encoding/json/v2</text><rect x="20" y="395" width="424" height="1" fill="#33332f"/><text class="mono t2" x="20" y="421" font-size="11">encoding/json/v2</text><path d="M180 408 h127 a4 4 0 0 1 4 4 v10 a4 4 0 0 1 -4 4 h-127 z" fill="#8c8c84"/><text class="mono t2" x="321" y="421" font-size="11">11855</text><text class="mono t1" x="30" y="449" font-size="11">+ odjson</text><path d="M180 436 h25 a4 4 0 0 1 4 4 v10 a4 4 0 0 1 -4 4 h-25 z" fill="#3987e5"/><text class="mono t1" x="219" y="449" font-size="11">2596</text><path d="M209 428 v6 m0 -3 H311 m0 -3 v6" stroke="#3987e5" stroke-width="2" fill="none"/><text x="257" y="451" font-size="16" font-weight="700" fill="#3987e5">4.57× faster</text><text class="mono t2" x="20" y="477" font-size="11">sonic</text><path d="M180 464 h34 a4 4 0 0 1 4 4 v10 a4 4 0 0 1 -4 4 h-34 z" fill="#8c8c84"/><text class="mono t2" x="228" y="477" font-size="11">3434</text><text class="mono t2" x="20" y="505" font-size="11">go-json</text><path d="M180 492 h35 a4 4 0 0 1 4 4 v10 a4 4 0 0 1 -4 4 h-35 z" fill="#8c8c84"/><text class="mono t2" x="229" y="505" font-size="11">3491</text><text class="mono t2" x="20" y="533" font-size="11">json-iterator</text><path d="M180 520 h97 a4 4 0 0 1 4 4 v10 a4 4 0 0 1 -4 4 h-97 z" fill="#8c8c84"/><text class="mono t2" x="291" y="533" font-size="11">9156</text><text class="mono t2" x="20" y="561" font-size="11">segmentio/encoding</text><path d="M180 548 h51 a4 4 0 0 1 4 4 v10 a4 4 0 0 1 -4 4 h-51 z" fill="#8c8c84"/><text class="mono t2" x="245" y="561" font-size="11">4947</text><text class="mono t2" x="20" y="589" font-size="11">jettison</text><path d="M180 576 h90 a4 4 0 0 1 4 4 v10 a4 4 0 0 1 -4 4 h-90 z" fill="#8c8c84"/><text class="mono t2" x="284" y="589" font-size="11">8518</text><text class="mono t2" x="20" y="617" font-size="11">easyjson (codegen)</text><path d="M180 604 h103 a4 4 0 0 1 4 4 v10 a4 4 0 0 1 -4 4 h-103 z" fill="#8c8c84"/><text class="mono t2" x="297" y="617" font-size="11">9698</text><text class="mono t2" x="20" y="645" font-size="11">gojay (hand-written)</text><path d="M180 632 h188 a4 4 0 0 1 4 4 v10 a4 4 0 0 1 -4 4 h-188 z" fill="#8c8c84"/><text class="mono t2" x="382" y="645" font-size="11">17408</text><text class="t1" x="20" y="699" font-size="13" font-weight="600">Marshal</text><text class="t2" x="88" y="699" font-size="11">small · 340 B · ns · odjson vs encoding/json/v2</text><rect x="20" y="707" width="424" height="1" fill="#33332f"/><text class="mono t2" x="20" y="733" font-size="11">encoding/json/v2</text><path d="M180 720 h188 a4 4 0 0 1 4 4 v10 a4 4 0 0 1 -4 4 h-188 z" fill="#8c8c84"/><text class="mono t2" x="382" y="733" font-size="11">1014</text><text class="mono t1" x="30" y="761" font-size="11">+ odjson</text><path d="M180 748 h48 a4 4 0 0 1 4 4 v10 a4 4 0 0 1 -4 4 h-48 z" fill="#3987e5"/><text class="mono t1" x="242" y="761" font-size="11">276</text><path d="M232 740 v6 m0 -3 H372 m0 -3 v6" stroke="#3987e5" stroke-width="2" fill="none"/><text x="273" y="763" font-size="16" font-weight="700" fill="#3987e5">3.67× faster</text><text class="mono t2" x="20" y="789" font-size="11">sonic</text><path d="M180 776 h52 a4 4 0 0 1 4 4 v10 a4 4 0 0 1 -4 4 h-52 z" fill="#8c8c84"/><text class="mono t2" x="246" y="789" font-size="11">294</text><text class="mono t2" x="20" y="817" font-size="11">go-json</text><path d="M180 804 h68 a4 4 0 0 1 4 4 v10 a4 4 0 0 1 -4 4 h-68 z" fill="#8c8c84"/><text class="mono t2" x="262" y="817" font-size="11">378</text><text class="mono t2" x="20" y="845" font-size="11">json-iterator</text><path d="M180 832 h106 a4 4 0 0 1 4 4 v10 a4 4 0 0 1 -4 4 h-106 z" fill="#8c8c84"/><text class="mono t2" x="300" y="845" font-size="11">582</text><text class="mono t2" x="20" y="873" font-size="11">segmentio/encoding</text><path d="M180 860 h71 a4 4 0 0 1 4 4 v10 a4 4 0 0 1 -4 4 h-71 z" fill="#8c8c84"/><text class="mono t2" x="265" y="873" font-size="11">395</text><text class="mono t2" x="20" y="901" font-size="11">jettison</text><path d="M180 888 h86 a4 4 0 0 1 4 4 v10 a4 4 0 0 1 -4 4 h-86 z" fill="#8c8c84"/><text class="mono t2" x="280" y="901" font-size="11">477</text><text class="mono t2" x="20" y="929" font-size="11">easyjson (codegen)</text><path d="M180 916 h126 a4 4 0 0 1 4 4 v10 a4 4 0 0 1 -4 4 h-126 z" fill="#8c8c84"/><text class="mono t2" x="320" y="929" font-size="11">687</text><text class="mono t2" x="20" y="957" font-size="11">gojay (hand-written)</text><path d="M180 944 h119 a4 4 0 0 1 4 4 v10 a4 4 0 0 1 -4 4 h-119 z" fill="#8c8c84"/><text class="mono t2" x="313" y="957" font-size="11">647</text><text class="t1" x="468" y="75" font-size="13" font-weight="600">Unmarshal</text><text class="t2" x="554" y="75" font-size="11">large · 616 KiB · µs · odjson vs encoding/json/v2</text><rect x="468" y="83" width="424" height="1" fill="#33332f"/><text class="mono t2" x="468" y="109" font-size="11">encoding/json/v2</text><path d="M628 96 h77 a4 4 0 0 1 4 4 v10 a4 4 0 0 1 -4 4 h-77 z" fill="#8c8c84"/><text class="mono t2" x="719" y="109" font-size="11">1102</text><text class="mono t1" x="478" y="137" font-size="11">+ odjson</text><path d="M628 124 h24 a4 4 0 0 1 4 4 v10 a4 4 0 0 1 -4 4 h-24 z" fill="#3987e5"/><text class="mono t1" x="666" y="137" font-size="11">378</text><path d="M656 116 v6 m0 -3 H709 m0 -3 v6" stroke="#3987e5" stroke-width="2" fill="none"/><text x="697" y="139" font-size="16" font-weight="700" fill="#3987e5">2.91× faster</text><text class="mono t2" x="468" y="165" font-size="11">sonic</text><path d="M628 152 h35 a4 4 0 0 1 4 4 v10 a4 4 0 0 1 -4 4 h-35 z" fill="#8c8c84"/><text class="mono t2" x="677" y="165" font-size="11">524</text><text class="mono t2" x="468" y="193" font-size="11">go-json</text><path d="M628 180 h26 a4 4 0 0 1 4 4 v10 a4 4 0 0 1 -4 4 h-26 z" fill="#8c8c84"/><text class="mono t2" x="668" y="193" font-size="11">405</text><text class="mono t2" x="468" y="221" font-size="11">json-iterator</text><path d="M628 208 h77 a4 4 0 0 1 4 4 v10 a4 4 0 0 1 -4 4 h-77 z" fill="#8c8c84"/><text class="mono t2" x="719" y="221" font-size="11">1096</text><text class="mono t2" x="468" y="249" font-size="11">segmentio/encoding</text><path d="M628 236 h61 a4 4 0 0 1 4 4 v10 a4 4 0 0 1 -4 4 h-61 z" fill="#8c8c84"/><text class="mono t2" x="703" y="249" font-size="11">879</text><text class="mono t2" x="468" y="277" font-size="11">simdjson-go</text><path d="M628 264 h41 a4 4 0 0 1 4 4 v10 a4 4 0 0 1 -4 4 h-41 z" fill="#8c8c84"/><text class="mono t2" x="683" y="277" font-size="11">611</text><text class="mono t2" x="468" y="305" font-size="11">easyjson (codegen)</text><path d="M628 292 h78 a4 4 0 0 1 4 4 v10 a4 4 0 0 1 -4 4 h-78 z" fill="#8c8c84"/><text class="mono t2" x="720" y="305" font-size="11">1113</text><text class="mono t2" x="468" y="333" font-size="11">gojay (hand-written)</text><path d="M628 320 h188 a4 4 0 0 1 4 4 v10 a4 4 0 0 1 -4 4 h-188 z" fill="#8c8c84"/><text class="mono t2" x="830" y="333" font-size="11">2608</text><text class="t1" x="468" y="387" font-size="13" font-weight="600">Unmarshal</text><text class="t2" x="554" y="387" font-size="11">medium · 13 KiB · ns · odjson vs encoding/json/v2</text><rect x="468" y="395" width="424" height="1" fill="#33332f"/><text class="mono t2" x="468" y="421" font-size="11">encoding/json/v2</text><path d="M628 408 h137 a4 4 0 0 1 4 4 v10 a4 4 0 0 1 -4 4 h-137 z" fill="#8c8c84"/><text class="mono t2" x="779" y="421" font-size="11">22048</text><text class="mono t1" x="478" y="449" font-size="11">+ odjson</text><path d="M628 436 h51 a4 4 0 0 1 4 4 v10 a4 4 0 0 1 -4 4 h-51 z" fill="#3987e5"/><text class="mono t1" x="693" y="449" font-size="11">8550</text><path d="M683 428 v6 m0 -3 H769 m0 -3 v6" stroke="#3987e5" stroke-width="2" fill="none"/><text x="731" y="451" font-size="16" font-weight="700" fill="#3987e5">2.58× faster</text><text class="mono t2" x="468" y="477" font-size="11">sonic</text><path d="M628 464 h92 a4 4 0 0 1 4 4 v10 a4 4 0 0 1 -4 4 h-92 z" fill="#8c8c84"/><text class="mono t2" x="734" y="477" font-size="11">14946</text><text class="mono t2" x="468" y="505" font-size="11">go-json</text><path d="M628 492 h53 a4 4 0 0 1 4 4 v10 a4 4 0 0 1 -4 4 h-53 z" fill="#8c8c84"/><text class="mono t2" x="695" y="505" font-size="11">8903</text><text class="mono t2" x="468" y="533" font-size="11">json-iterator</text><path d="M628 520 h140 a4 4 0 0 1 4 4 v10 a4 4 0 0 1 -4 4 h-140 z" fill="#8c8c84"/><text class="mono t2" x="782" y="533" font-size="11">22574</text><text class="mono t2" x="468" y="561" font-size="11">segmentio/encoding</text><path d="M628 548 h109 a4 4 0 0 1 4 4 v10 a4 4 0 0 1 -4 4 h-109 z" fill="#8c8c84"/><text class="mono t2" x="751" y="561" font-size="11">17640</text><text class="mono t2" x="468" y="589" font-size="11">simdjson-go</text><path d="M628 576 h188 a4 4 0 0 1 4 4 v10 a4 4 0 0 1 -4 4 h-188 z" fill="#8c8c84"/><text class="mono t2" x="830" y="589" font-size="11">30004</text><text class="mono t2" x="468" y="617" font-size="11">easyjson (codegen)</text><path d="M628 604 h115 a4 4 0 0 1 4 4 v10 a4 4 0 0 1 -4 4 h-115 z" fill="#8c8c84"/><text class="mono t2" x="757" y="617" font-size="11">18594</text><text class="mono t2" x="468" y="645" font-size="11">gojay (hand-written)</text><path d="M628 632 h161 a4 4 0 0 1 4 4 v10 a4 4 0 0 1 -4 4 h-161 z" fill="#8c8c84"/><text class="mono t2" x="803" y="645" font-size="11">25832</text><text class="t1" x="468" y="699" font-size="13" font-weight="600">Unmarshal</text><text class="t2" x="554" y="699" font-size="11">small · 340 B · ns · odjson vs encoding/json/v2</text><rect x="468" y="707" width="424" height="1" fill="#33332f"/><text class="mono t2" x="468" y="733" font-size="11">encoding/json/v2</text><path d="M628 720 h188 a4 4 0 0 1 4 4 v10 a4 4 0 0 1 -4 4 h-188 z" fill="#8c8c84"/><text class="mono t2" x="830" y="733" font-size="11">1891</text><text class="mono t1" x="478" y="761" font-size="11">+ odjson</text><path d="M628 748 h50 a4 4 0 0 1 4 4 v10 a4 4 0 0 1 -4 4 h-50 z" fill="#3987e5"/><text class="mono t1" x="692" y="761" font-size="11">530</text><path d="M682 740 v6 m0 -3 H820 m0 -3 v6" stroke="#3987e5" stroke-width="2" fill="none"/><text x="723" y="763" font-size="16" font-weight="700" fill="#3987e5">3.57× faster</text><text class="mono t2" x="468" y="789" font-size="11">sonic</text><path d="M628 776 h100 a4 4 0 0 1 4 4 v10 a4 4 0 0 1 -4 4 h-100 z" fill="#8c8c84"/><text class="mono t2" x="742" y="789" font-size="11">1021</text><text class="mono t2" x="468" y="817" font-size="11">go-json</text><path d="M628 804 h52 a4 4 0 0 1 4 4 v10 a4 4 0 0 1 -4 4 h-52 z" fill="#8c8c84"/><text class="mono t2" x="694" y="817" font-size="11">550</text><text class="mono t2" x="468" y="845" font-size="11">json-iterator</text><path d="M628 832 h109 a4 4 0 0 1 4 4 v10 a4 4 0 0 1 -4 4 h-109 z" fill="#8c8c84"/><text class="mono t2" x="751" y="845" font-size="11">1110</text><text class="mono t2" x="468" y="873" font-size="11">segmentio/encoding</text><path d="M628 860 h113 a4 4 0 0 1 4 4 v10 a4 4 0 0 1 -4 4 h-113 z" fill="#8c8c84"/><text class="mono t2" x="755" y="873" font-size="11">1156</text><text class="mono t2" x="468" y="901" font-size="11">simdjson-go</text><path d="M628 888 h160 a4 4 0 0 1 4 4 v10 a4 4 0 0 1 -4 4 h-160 z" fill="#8c8c84"/><text class="mono t2" x="802" y="901" font-size="11">1618</text><text class="mono t2" x="468" y="929" font-size="11">easyjson (codegen)</text><path d="M628 916 h115 a4 4 0 0 1 4 4 v10 a4 4 0 0 1 -4 4 h-115 z" fill="#8c8c84"/><text class="mono t2" x="757" y="929" font-size="11">1169</text><text class="mono t2" x="468" y="957" font-size="11">gojay (hand-written)</text><path d="M628 944 h105 a4 4 0 0 1 4 4 v10 a4 4 0 0 1 -4 4 h-105 z" fill="#8c8c84"/><text class="mono t2" x="747" y="957" font-size="11">1070</text><text class="t2" x="20" y="991" font-size="11">Medians of 10 runs · AMD Ryzen 9 7950X · Linux · Go 1.27.1 · bench/plain, gen, easyjson and gojay</text></svg>
